<mxfile host="app.diagrams.net" agent="Mozilla/5.0 (Windows NT 10.0; Win64; x64; rv:137.0) Gecko/20100101 Firefox/137.0" version="26.2.3">
  <diagram name="Trang-1" id="dPTVrLclq-EbffauA4Mr">
    <mxGraphModel dx="6078" dy="1252" grid="1" gridSize="10" guides="1" tooltips="1" connect="1" arrows="1" fold="1" page="1" pageScale="1" pageWidth="3300" pageHeight="4681" math="0" shadow="0">
      <root>
        <mxCell id="0" />
        <mxCell id="1" parent="0" />
        <mxCell id="upQioBe8CkQy4cEBD0_V-7" value="" style="rounded=0;whiteSpace=wrap;html=1;" vertex="1" parent="1">
          <mxGeometry x="550" y="10" width="420" height="870" as="geometry" />
        </mxCell>
        <mxCell id="upQioBe8CkQy4cEBD0_V-8" value="Bắt đầu: KH không hài lòng/ hàng lỗi" style="ellipse;whiteSpace=wrap;html=1;" vertex="1" parent="1">
          <mxGeometry x="680" y="40" width="140" height="60" as="geometry" />
        </mxCell>
        <mxCell id="upQioBe8CkQy4cEBD0_V-9" value="Khách hàng" style="text;html=1;align=center;verticalAlign=middle;whiteSpace=wrap;rounded=0;" vertex="1" parent="1">
          <mxGeometry x="705" y="10" width="90" height="30" as="geometry" />
        </mxCell>
        <mxCell id="upQioBe8CkQy4cEBD0_V-11" value="Đăng nhập vào sàn TMĐT" style="rhombus;whiteSpace=wrap;html=1;" vertex="1" parent="1">
          <mxGeometry x="697.5" y="140" width="105" height="120" as="geometry" />
        </mxCell>
        <mxCell id="upQioBe8CkQy4cEBD0_V-12" value="Truy cập mục đơn hàng của tôi" style="rounded=0;whiteSpace=wrap;html=1;" vertex="1" parent="1">
          <mxGeometry x="690" y="310" width="120" height="60" as="geometry" />
        </mxCell>
        <mxCell id="upQioBe8CkQy4cEBD0_V-13" value="Chọn đơn hàng cần đổi trả" style="rounded=0;whiteSpace=wrap;html=1;" vertex="1" parent="1">
          <mxGeometry x="690" y="410" width="120" height="60" as="geometry" />
        </mxCell>
        <mxCell id="upQioBe8CkQy4cEBD0_V-14" value="Nhấn nút yêu cầu trả hàng/hoàn tiền" style="rounded=0;whiteSpace=wrap;html=1;" vertex="1" parent="1">
          <mxGeometry x="690" y="510" width="120" height="60" as="geometry" />
        </mxCell>
        <mxCell id="upQioBe8CkQy4cEBD0_V-15" value="Chọn lý do và cung cấp bằng chứng, video" style="rounded=0;whiteSpace=wrap;html=1;" vertex="1" parent="1">
          <mxGeometry x="690" y="610" width="120" height="60" as="geometry" />
        </mxCell>
        <mxCell id="upQioBe8CkQy4cEBD0_V-16" value="Gửi yêu cầu trên hệ thống" style="rounded=0;whiteSpace=wrap;html=1;" vertex="1" parent="1">
          <mxGeometry x="690" y="740" width="120" height="60" as="geometry" />
        </mxCell>
        <mxCell id="upQioBe8CkQy4cEBD0_V-17" value="" style="rounded=0;whiteSpace=wrap;html=1;" vertex="1" parent="1">
          <mxGeometry x="357.5" y="930" width="1202.5" height="3760" as="geometry" />
        </mxCell>
        <mxCell id="upQioBe8CkQy4cEBD0_V-18" value="HỆ-THỐNG-SÀN-THƯƠNG-MẠI ĐT" style="text;html=1;align=center;verticalAlign=middle;whiteSpace=wrap;rounded=0;" vertex="1" parent="1">
          <mxGeometry x="650" y="940" width="230" height="30" as="geometry" />
        </mxCell>
        <mxCell id="upQioBe8CkQy4cEBD0_V-19" value="Hệ thống nhận yêu cầu" style="rhombus;whiteSpace=wrap;html=1;" vertex="1" parent="1">
          <mxGeometry x="685" y="990" width="145" height="170" as="geometry" />
        </mxCell>
        <mxCell id="upQioBe8CkQy4cEBD0_V-20" value="Kiểm tra tính hợp lệ, Thời hạn đổi trả?" style="rhombus;whiteSpace=wrap;html=1;" vertex="1" parent="1">
          <mxGeometry x="685" y="1210" width="135" height="160" as="geometry" />
        </mxCell>
        <mxCell id="upQioBe8CkQy4cEBD0_V-21" value="Chuyển yêu cầu đến người bán" style="rounded=0;whiteSpace=wrap;html=1;" vertex="1" parent="1">
          <mxGeometry x="400" y="1425" width="120" height="60" as="geometry" />
        </mxCell>
        <mxCell id="upQioBe8CkQy4cEBD0_V-22" value="Chờ người bán phản hồi" style="rhombus;whiteSpace=wrap;html=1;" vertex="1" parent="1">
          <mxGeometry x="550" y="1550" width="120" height="130" as="geometry" />
        </mxCell>
        <mxCell id="upQioBe8CkQy4cEBD0_V-23" value="" style="rounded=0;whiteSpace=wrap;html=1;" vertex="1" parent="1">
          <mxGeometry x="-390" y="1485" width="440" height="2525" as="geometry" />
        </mxCell>
        <mxCell id="upQioBe8CkQy4cEBD0_V-24" value="Người bán" style="text;html=1;align=center;verticalAlign=middle;whiteSpace=wrap;rounded=0;" vertex="1" parent="1">
          <mxGeometry x="-200" y="1485" width="60" height="30" as="geometry" />
        </mxCell>
        <mxCell id="upQioBe8CkQy4cEBD0_V-25" value="NB nhận được yêu cầu qua hệ thống" style="rhombus;whiteSpace=wrap;html=1;" vertex="1" parent="1">
          <mxGeometry x="-270" y="1580" width="180" height="180" as="geometry" />
        </mxCell>
        <mxCell id="upQioBe8CkQy4cEBD0_V-26" value="NB xem xét yêu cầu và bằng chứng" style="rhombus;whiteSpace=wrap;html=1;" vertex="1" parent="1">
          <mxGeometry x="-290" y="1820" width="220" height="240" as="geometry" />
        </mxCell>
        <mxCell id="upQioBe8CkQy4cEBD0_V-27" value="NB phản hồi lý do từ chối trên hệ thống" style="rounded=0;whiteSpace=wrap;html=1;" vertex="1" parent="1">
          <mxGeometry x="540" y="1850" width="120" height="60" as="geometry" />
        </mxCell>
        <mxCell id="upQioBe8CkQy4cEBD0_V-28" value="Người bán đồng ý" style="rounded=0;whiteSpace=wrap;html=1;" vertex="1" parent="1">
          <mxGeometry x="940" y="1850" width="120" height="60" as="geometry" />
        </mxCell>
        <mxCell id="upQioBe8CkQy4cEBD0_V-29" value="Thông báo KQ cho khách hàng" style="rhombus;whiteSpace=wrap;html=1;" vertex="1" parent="1">
          <mxGeometry x="510" y="2010" width="180" height="180" as="geometry" />
        </mxCell>
        <mxCell id="upQioBe8CkQy4cEBD0_V-30" value="Cập nhật trạng thái chờ gửi hàng về" style="rhombus;whiteSpace=wrap;html=1;" vertex="1" parent="1">
          <mxGeometry x="900" y="2010" width="220" height="185" as="geometry" />
        </mxCell>
        <mxCell id="upQioBe8CkQy4cEBD0_V-31" value="KH có thể khiếu nại" style="rhombus;whiteSpace=wrap;html=1;" vertex="1" parent="1">
          <mxGeometry x="110" y="2180" width="170" height="180" as="geometry" />
        </mxCell>
        <mxCell id="upQioBe8CkQy4cEBD0_V-32" value="Kết thúc - từ chối" style="rounded=0;whiteSpace=wrap;html=1;" vertex="1" parent="1">
          <mxGeometry x="120" y="2470" width="120" height="60" as="geometry" />
        </mxCell>
        <mxCell id="upQioBe8CkQy4cEBD0_V-33" value="Thông báo từ chối cho khách hàng" style="rounded=0;whiteSpace=wrap;html=1;" vertex="1" parent="1">
          <mxGeometry x="1320" y="2281" width="120" height="60" as="geometry" />
        </mxCell>
        <mxCell id="upQioBe8CkQy4cEBD0_V-34" value="Thông báo cho KH và cung cấp tùy chọn gửi hàng Mang ra bưu cục hoặc chờ shipper lấy " style="rounded=0;whiteSpace=wrap;html=1;" vertex="1" parent="1">
          <mxGeometry x="905" y="2290.5" width="210" height="100" as="geometry" />
        </mxCell>
        <mxCell id="upQioBe8CkQy4cEBD0_V-35" value="" style="rounded=0;whiteSpace=wrap;html=1;" vertex="1" parent="1">
          <mxGeometry x="-900" y="2221" width="430" height="2059" as="geometry" />
        </mxCell>
        <mxCell id="upQioBe8CkQy4cEBD0_V-36" value="Đơn vị vận chuyển" style="text;html=1;align=center;verticalAlign=middle;whiteSpace=wrap;rounded=0;" vertex="1" parent="1">
          <mxGeometry x="-730" y="2230" width="110" height="30" as="geometry" />
        </mxCell>
        <mxCell id="upQioBe8CkQy4cEBD0_V-37" value="ĐVVC nhận yêu cầu lấy hàng trả nếu có" style="rhombus;whiteSpace=wrap;html=1;" vertex="1" parent="1">
          <mxGeometry x="-780" y="2300.5" width="170" height="189.5" as="geometry" />
        </mxCell>
        <mxCell id="upQioBe8CkQy4cEBD0_V-38" value="ĐVVC lấy hàng từ KH" style="rounded=0;whiteSpace=wrap;html=1;" vertex="1" parent="1">
          <mxGeometry x="-755" y="2560" width="120" height="60" as="geometry" />
        </mxCell>
        <mxCell id="upQioBe8CkQy4cEBD0_V-39" value="ĐVVC lấy hàng trả về NB" style="rounded=0;whiteSpace=wrap;html=1;" vertex="1" parent="1">
          <mxGeometry x="-755" y="2710" width="120" height="60" as="geometry" />
        </mxCell>
        <mxCell id="upQioBe8CkQy4cEBD0_V-40" value="Hệ thống ghi nhận ĐVVC đã lấy hoặc nhận hàng từ KH" style="rounded=0;whiteSpace=wrap;html=1;" vertex="1" parent="1">
          <mxGeometry x="900" y="2740" width="160" height="60" as="geometry" />
        </mxCell>
        <mxCell id="upQioBe8CkQy4cEBD0_V-41" value="Cập nhật trạng thái: Đang trả hàng" style="rounded=0;whiteSpace=wrap;html=1;" vertex="1" parent="1">
          <mxGeometry x="920" y="2860" width="120" height="50" as="geometry" />
        </mxCell>
        <mxCell id="upQioBe8CkQy4cEBD0_V-42" value="Hệ thống ghi nhận ĐVVC đã giao hàng cho NB" style="rounded=0;whiteSpace=wrap;html=1;" vertex="1" parent="1">
          <mxGeometry x="520" y="2800" width="120" height="60" as="geometry" />
        </mxCell>
        <mxCell id="upQioBe8CkQy4cEBD0_V-43" value="NB nhận được hàng trả" style="rounded=0;whiteSpace=wrap;html=1;" vertex="1" parent="1">
          <mxGeometry x="520" y="2920" width="120" height="60" as="geometry" />
        </mxCell>
        <mxCell id="upQioBe8CkQy4cEBD0_V-44" value="Cập nhật trạng thái đã nhận hàng" style="rhombus;whiteSpace=wrap;html=1;" vertex="1" parent="1">
          <mxGeometry x="520" y="3030" width="140" height="140" as="geometry" />
        </mxCell>
        <mxCell id="upQioBe8CkQy4cEBD0_V-45" value="Chờ NB kiểm tra hàng" style="rhombus;whiteSpace=wrap;html=1;" vertex="1" parent="1">
          <mxGeometry x="550" y="3240" width="80" height="80" as="geometry" />
        </mxCell>
        <mxCell id="upQioBe8CkQy4cEBD0_V-46" value="NB kiểm tra tình trạng hàng nhận về" style="rhombus;whiteSpace=wrap;html=1;" vertex="1" parent="1">
          <mxGeometry x="-240" y="3270" width="130" height="120" as="geometry" />
        </mxCell>
        <mxCell id="upQioBe8CkQy4cEBD0_V-47" value="NB tạo khiếu nại trên hệ thống" style="rounded=0;whiteSpace=wrap;html=1;" vertex="1" parent="1">
          <mxGeometry x="460" y="3520" width="120" height="60" as="geometry" />
        </mxCell>
        <mxCell id="upQioBe8CkQy4cEBD0_V-48" value="NB xác nhận hàng OK và Đồng ý hoàn tiền hoặc đổi trả" style="rounded=0;whiteSpace=wrap;html=1;" vertex="1" parent="1">
          <mxGeometry x="730" y="3510" width="190" height="100" as="geometry" />
        </mxCell>
        <mxCell id="upQioBe8CkQy4cEBD0_V-49" value="Kích hoạt quy trình khiếu nại" style="rhombus;whiteSpace=wrap;html=1;" vertex="1" parent="1">
          <mxGeometry x="460" y="3700" width="160" height="180" as="geometry" />
        </mxCell>
        <mxCell id="upQioBe8CkQy4cEBD0_V-50" value="Xử lý hoàn tiền hoặc tạo đơn đổi" style="rhombus;whiteSpace=wrap;html=1;" vertex="1" parent="1">
          <mxGeometry x="730" y="3690" width="220" height="260" as="geometry" />
        </mxCell>
        <mxCell id="upQioBe8CkQy4cEBD0_V-51" value="Thông báo người bán gửi đơn hàng mới" style="rounded=0;whiteSpace=wrap;html=1;" vertex="1" parent="1">
          <mxGeometry x="785" y="4050" width="120" height="60" as="geometry" />
        </mxCell>
        <mxCell id="upQioBe8CkQy4cEBD0_V-52" value="ĐVVC nhận hàng đổi từ NB" style="rounded=0;whiteSpace=wrap;html=1;" vertex="1" parent="1">
          <mxGeometry x="-745" y="3960" width="120" height="60" as="geometry" />
        </mxCell>
        <mxCell id="upQioBe8CkQy4cEBD0_V-53" value="Chuyển lệnh hoàn tiền qua Cổng thanh toán hoặc ví tiền điện tử" style="rounded=0;whiteSpace=wrap;html=1;" vertex="1" parent="1">
          <mxGeometry x="1220" y="3990" width="120" height="60" as="geometry" />
        </mxCell>
        <mxCell id="upQioBe8CkQy4cEBD0_V-54" value="Thông báo hoàn tiền thành công cho KH" style="rounded=0;whiteSpace=wrap;html=1;" vertex="1" parent="1">
          <mxGeometry x="1220" y="4110" width="120" height="60" as="geometry" />
        </mxCell>
        <mxCell id="upQioBe8CkQy4cEBD0_V-55" value="Kết thúc - Hoàn tiền thành công" style="rounded=0;whiteSpace=wrap;html=1;" vertex="1" parent="1">
          <mxGeometry x="-120" y="4110" width="120" height="60" as="geometry" />
        </mxCell>
        <mxCell id="upQioBe8CkQy4cEBD0_V-56" value="NB chuẩn bị và gửi hàng đổi" style="rounded=0;whiteSpace=wrap;html=1;" vertex="1" parent="1">
          <mxGeometry x="-310" y="3880" width="120" height="60" as="geometry" />
        </mxCell>
        <mxCell id="upQioBe8CkQy4cEBD0_V-57" value="ĐVVC giao hàng đổi cho KH" style="rounded=0;whiteSpace=wrap;html=1;" vertex="1" parent="1">
          <mxGeometry x="-745" y="4120" width="120" height="60" as="geometry" />
        </mxCell>
        <mxCell id="upQioBe8CkQy4cEBD0_V-58" value="Hệ thống ghi nhận giao hàng đổi thành công " style="rounded=0;whiteSpace=wrap;html=1;" vertex="1" parent="1">
          <mxGeometry x="785" y="4330" width="120" height="60" as="geometry" />
        </mxCell>
        <mxCell id="upQioBe8CkQy4cEBD0_V-59" value="Hoàn tất quy trình đổi hàng" style="rounded=0;whiteSpace=wrap;html=1;" vertex="1" parent="1">
          <mxGeometry x="770" y="4490" width="120" height="60" as="geometry" />
        </mxCell>
        <mxCell id="upQioBe8CkQy4cEBD0_V-60" value="Kết thúc đổi hàng - thành công" style="rounded=0;whiteSpace=wrap;html=1;" vertex="1" parent="1">
          <mxGeometry x="780" y="4760" width="120" height="60" as="geometry" />
        </mxCell>
        <mxCell id="upQioBe8CkQy4cEBD0_V-61" value="" style="endArrow=classic;html=1;rounded=0;exitX=0.5;exitY=1;exitDx=0;exitDy=0;entryX=0.517;entryY=0.071;entryDx=0;entryDy=0;entryPerimeter=0;" edge="1" parent="1" source="upQioBe8CkQy4cEBD0_V-8" target="upQioBe8CkQy4cEBD0_V-11">
          <mxGeometry width="50" height="50" relative="1" as="geometry">
            <mxPoint x="820" y="260" as="sourcePoint" />
            <mxPoint x="870" y="210" as="targetPoint" />
          </mxGeometry>
        </mxCell>
        <mxCell id="upQioBe8CkQy4cEBD0_V-63" value="" style="endArrow=classic;html=1;rounded=0;exitX=0.5;exitY=1;exitDx=0;exitDy=0;entryX=0.5;entryY=0;entryDx=0;entryDy=0;" edge="1" parent="1" source="upQioBe8CkQy4cEBD0_V-11" target="upQioBe8CkQy4cEBD0_V-12">
          <mxGeometry width="50" height="50" relative="1" as="geometry">
            <mxPoint x="820" y="260" as="sourcePoint" />
            <mxPoint x="870" y="210" as="targetPoint" />
          </mxGeometry>
        </mxCell>
        <mxCell id="upQioBe8CkQy4cEBD0_V-64" value="" style="endArrow=classic;html=1;rounded=0;exitX=0.5;exitY=1;exitDx=0;exitDy=0;entryX=0.5;entryY=0;entryDx=0;entryDy=0;" edge="1" parent="1" source="upQioBe8CkQy4cEBD0_V-12" target="upQioBe8CkQy4cEBD0_V-13">
          <mxGeometry width="50" height="50" relative="1" as="geometry">
            <mxPoint x="820" y="260" as="sourcePoint" />
            <mxPoint x="870" y="210" as="targetPoint" />
          </mxGeometry>
        </mxCell>
        <mxCell id="upQioBe8CkQy4cEBD0_V-65" value="" style="endArrow=classic;html=1;rounded=0;exitX=0.5;exitY=1;exitDx=0;exitDy=0;entryX=0.5;entryY=0;entryDx=0;entryDy=0;" edge="1" parent="1" source="upQioBe8CkQy4cEBD0_V-13" target="upQioBe8CkQy4cEBD0_V-14">
          <mxGeometry width="50" height="50" relative="1" as="geometry">
            <mxPoint x="820" y="710" as="sourcePoint" />
            <mxPoint x="870" y="660" as="targetPoint" />
          </mxGeometry>
        </mxCell>
        <mxCell id="upQioBe8CkQy4cEBD0_V-66" value="" style="endArrow=classic;html=1;rounded=0;exitX=0.5;exitY=1;exitDx=0;exitDy=0;" edge="1" parent="1" source="upQioBe8CkQy4cEBD0_V-14" target="upQioBe8CkQy4cEBD0_V-15">
          <mxGeometry width="50" height="50" relative="1" as="geometry">
            <mxPoint x="820" y="860" as="sourcePoint" />
            <mxPoint x="870" y="810" as="targetPoint" />
          </mxGeometry>
        </mxCell>
        <mxCell id="upQioBe8CkQy4cEBD0_V-67" value="" style="endArrow=classic;html=1;rounded=0;exitX=0.5;exitY=1;exitDx=0;exitDy=0;" edge="1" parent="1" source="upQioBe8CkQy4cEBD0_V-15" target="upQioBe8CkQy4cEBD0_V-16">
          <mxGeometry width="50" height="50" relative="1" as="geometry">
            <mxPoint x="820" y="860" as="sourcePoint" />
            <mxPoint x="870" y="810" as="targetPoint" />
          </mxGeometry>
        </mxCell>
        <mxCell id="upQioBe8CkQy4cEBD0_V-68" value="" style="endArrow=classic;html=1;rounded=0;" edge="1" parent="1" source="upQioBe8CkQy4cEBD0_V-16" target="upQioBe8CkQy4cEBD0_V-19">
          <mxGeometry width="50" height="50" relative="1" as="geometry">
            <mxPoint x="820" y="1160" as="sourcePoint" />
            <mxPoint x="870" y="1110" as="targetPoint" />
          </mxGeometry>
        </mxCell>
        <mxCell id="upQioBe8CkQy4cEBD0_V-69" value="" style="endArrow=classic;html=1;rounded=0;exitX=0.5;exitY=1;exitDx=0;exitDy=0;entryX=0.489;entryY=0.066;entryDx=0;entryDy=0;entryPerimeter=0;" edge="1" parent="1" source="upQioBe8CkQy4cEBD0_V-19" target="upQioBe8CkQy4cEBD0_V-20">
          <mxGeometry width="50" height="50" relative="1" as="geometry">
            <mxPoint x="820" y="1410" as="sourcePoint" />
            <mxPoint x="870" y="1360" as="targetPoint" />
          </mxGeometry>
        </mxCell>
        <mxCell id="upQioBe8CkQy4cEBD0_V-70" value="" style="endArrow=classic;html=1;rounded=0;exitX=0.5;exitY=1;exitDx=0;exitDy=0;entryX=0.5;entryY=0;entryDx=0;entryDy=0;" edge="1" parent="1" source="upQioBe8CkQy4cEBD0_V-20" target="upQioBe8CkQy4cEBD0_V-21">
          <mxGeometry width="50" height="50" relative="1" as="geometry">
            <mxPoint x="820" y="1410" as="sourcePoint" />
            <mxPoint x="870" y="1360" as="targetPoint" />
            <Array as="points">
              <mxPoint x="460" y="1390" />
            </Array>
          </mxGeometry>
        </mxCell>
        <mxCell id="upQioBe8CkQy4cEBD0_V-71" value="hợp lệ" style="edgeLabel;html=1;align=center;verticalAlign=middle;resizable=0;points=[];" vertex="1" connectable="0" parent="upQioBe8CkQy4cEBD0_V-70">
          <mxGeometry x="0.6812" relative="1" as="geometry">
            <mxPoint as="offset" />
          </mxGeometry>
        </mxCell>
        <mxCell id="upQioBe8CkQy4cEBD0_V-72" value="" style="endArrow=classic;html=1;rounded=0;exitX=1;exitY=0.5;exitDx=0;exitDy=0;entryX=0.5;entryY=0;entryDx=0;entryDy=0;" edge="1" parent="1" source="upQioBe8CkQy4cEBD0_V-21" target="upQioBe8CkQy4cEBD0_V-22">
          <mxGeometry width="50" height="50" relative="1" as="geometry">
            <mxPoint x="820" y="1600" as="sourcePoint" />
            <mxPoint x="870" y="1550" as="targetPoint" />
            <Array as="points">
              <mxPoint x="610" y="1460" />
            </Array>
          </mxGeometry>
        </mxCell>
        <mxCell id="upQioBe8CkQy4cEBD0_V-73" value="" style="endArrow=classic;html=1;rounded=0;exitX=0.5;exitY=1;exitDx=0;exitDy=0;entryX=0.5;entryY=0;entryDx=0;entryDy=0;" edge="1" parent="1" source="upQioBe8CkQy4cEBD0_V-20" target="upQioBe8CkQy4cEBD0_V-33">
          <mxGeometry width="50" height="50" relative="1" as="geometry">
            <mxPoint x="820" y="1540" as="sourcePoint" />
            <mxPoint x="870" y="1490" as="targetPoint" />
            <Array as="points">
              <mxPoint x="1390" y="1380" />
            </Array>
          </mxGeometry>
        </mxCell>
        <mxCell id="upQioBe8CkQy4cEBD0_V-74" value="không hợp lệ" style="edgeLabel;html=1;align=center;verticalAlign=middle;resizable=0;points=[];" vertex="1" connectable="0" parent="upQioBe8CkQy4cEBD0_V-73">
          <mxGeometry x="-0.2723" y="2" relative="1" as="geometry">
            <mxPoint as="offset" />
          </mxGeometry>
        </mxCell>
        <mxCell id="upQioBe8CkQy4cEBD0_V-75" value="" style="endArrow=classic;html=1;rounded=0;exitX=0.5;exitY=1;exitDx=0;exitDy=0;entryX=1;entryY=0.5;entryDx=0;entryDy=0;" edge="1" parent="1" source="upQioBe8CkQy4cEBD0_V-21" target="upQioBe8CkQy4cEBD0_V-25">
          <mxGeometry width="50" height="50" relative="1" as="geometry">
            <mxPoint x="580" y="1830" as="sourcePoint" />
            <mxPoint x="630" y="1780" as="targetPoint" />
            <Array as="points">
              <mxPoint x="-90" y="1500" />
            </Array>
          </mxGeometry>
        </mxCell>
        <mxCell id="upQioBe8CkQy4cEBD0_V-76" value="" style="endArrow=classic;html=1;rounded=0;exitX=0.5;exitY=1;exitDx=0;exitDy=0;" edge="1" parent="1" source="upQioBe8CkQy4cEBD0_V-25" target="upQioBe8CkQy4cEBD0_V-26">
          <mxGeometry width="50" height="50" relative="1" as="geometry">
            <mxPoint x="580" y="2250" as="sourcePoint" />
            <mxPoint x="630" y="2200" as="targetPoint" />
          </mxGeometry>
        </mxCell>
        <mxCell id="upQioBe8CkQy4cEBD0_V-77" value="" style="endArrow=classic;html=1;rounded=0;exitX=1;exitY=0.5;exitDx=0;exitDy=0;entryX=0.5;entryY=0;entryDx=0;entryDy=0;" edge="1" parent="1" source="upQioBe8CkQy4cEBD0_V-26" target="upQioBe8CkQy4cEBD0_V-28">
          <mxGeometry width="50" height="50" relative="1" as="geometry">
            <mxPoint x="580" y="2140" as="sourcePoint" />
            <mxPoint x="630" y="2090" as="targetPoint" />
            <Array as="points">
              <mxPoint x="160" y="1660" />
            </Array>
          </mxGeometry>
        </mxCell>
        <mxCell id="upQioBe8CkQy4cEBD0_V-80" value="đồng ý" style="edgeLabel;html=1;align=center;verticalAlign=middle;resizable=0;points=[];" vertex="1" connectable="0" parent="upQioBe8CkQy4cEBD0_V-77">
          <mxGeometry x="-0.7339" y="3" relative="1" as="geometry">
            <mxPoint as="offset" />
          </mxGeometry>
        </mxCell>
        <mxCell id="upQioBe8CkQy4cEBD0_V-78" value="" style="endArrow=classic;html=1;rounded=0;exitX=0.5;exitY=1;exitDx=0;exitDy=0;entryX=0;entryY=0.5;entryDx=0;entryDy=0;" edge="1" parent="1" source="upQioBe8CkQy4cEBD0_V-26" target="upQioBe8CkQy4cEBD0_V-27">
          <mxGeometry width="50" height="50" relative="1" as="geometry">
            <mxPoint x="580" y="2140" as="sourcePoint" />
            <mxPoint x="630" y="2090" as="targetPoint" />
          </mxGeometry>
        </mxCell>
        <mxCell id="upQioBe8CkQy4cEBD0_V-79" value="từ chối" style="edgeLabel;html=1;align=center;verticalAlign=middle;resizable=0;points=[];" vertex="1" connectable="0" parent="upQioBe8CkQy4cEBD0_V-78">
          <mxGeometry x="-0.6377" y="-2" relative="1" as="geometry">
            <mxPoint y="1" as="offset" />
          </mxGeometry>
        </mxCell>
        <mxCell id="upQioBe8CkQy4cEBD0_V-81" value="" style="endArrow=classic;html=1;rounded=0;exitX=0.5;exitY=1;exitDx=0;exitDy=0;" edge="1" parent="1" source="upQioBe8CkQy4cEBD0_V-27" target="upQioBe8CkQy4cEBD0_V-29">
          <mxGeometry width="50" height="50" relative="1" as="geometry">
            <mxPoint x="580" y="2330" as="sourcePoint" />
            <mxPoint x="630" y="2280" as="targetPoint" />
          </mxGeometry>
        </mxCell>
        <mxCell id="upQioBe8CkQy4cEBD0_V-82" value="" style="endArrow=classic;html=1;rounded=0;exitX=0.5;exitY=1;exitDx=0;exitDy=0;entryX=0.5;entryY=0;entryDx=0;entryDy=0;" edge="1" parent="1" source="upQioBe8CkQy4cEBD0_V-28" target="upQioBe8CkQy4cEBD0_V-30">
          <mxGeometry width="50" height="50" relative="1" as="geometry">
            <mxPoint x="580" y="2330" as="sourcePoint" />
            <mxPoint x="630" y="2280" as="targetPoint" />
          </mxGeometry>
        </mxCell>
        <mxCell id="upQioBe8CkQy4cEBD0_V-83" value="" style="endArrow=classic;html=1;rounded=0;exitX=0.5;exitY=1;exitDx=0;exitDy=0;entryX=0.5;entryY=0;entryDx=0;entryDy=0;" edge="1" parent="1" source="upQioBe8CkQy4cEBD0_V-30" target="upQioBe8CkQy4cEBD0_V-34">
          <mxGeometry width="50" height="50" relative="1" as="geometry">
            <mxPoint x="580" y="2510" as="sourcePoint" />
            <mxPoint x="630" y="2460" as="targetPoint" />
          </mxGeometry>
        </mxCell>
        <mxCell id="upQioBe8CkQy4cEBD0_V-84" value="" style="endArrow=classic;html=1;rounded=0;exitX=0.5;exitY=1;exitDx=0;exitDy=0;entryX=1;entryY=0.5;entryDx=0;entryDy=0;" edge="1" parent="1" source="upQioBe8CkQy4cEBD0_V-29" target="upQioBe8CkQy4cEBD0_V-31">
          <mxGeometry width="50" height="50" relative="1" as="geometry">
            <mxPoint x="580" y="2510" as="sourcePoint" />
            <mxPoint x="630" y="2460" as="targetPoint" />
          </mxGeometry>
        </mxCell>
        <mxCell id="upQioBe8CkQy4cEBD0_V-85" value="" style="endArrow=classic;html=1;rounded=0;exitX=0.5;exitY=1;exitDx=0;exitDy=0;entryX=1;entryY=0.5;entryDx=0;entryDy=0;" edge="1" parent="1" source="upQioBe8CkQy4cEBD0_V-33" target="upQioBe8CkQy4cEBD0_V-32">
          <mxGeometry width="50" height="50" relative="1" as="geometry">
            <mxPoint x="580" y="2510" as="sourcePoint" />
            <mxPoint x="630" y="2460" as="targetPoint" />
            <Array as="points">
              <mxPoint x="1380" y="2500" />
            </Array>
          </mxGeometry>
        </mxCell>
        <mxCell id="upQioBe8CkQy4cEBD0_V-86" value="" style="endArrow=classic;html=1;rounded=0;exitX=0.5;exitY=1;exitDx=0;exitDy=0;entryX=0.5;entryY=0;entryDx=0;entryDy=0;" edge="1" parent="1" source="upQioBe8CkQy4cEBD0_V-31" target="upQioBe8CkQy4cEBD0_V-32">
          <mxGeometry width="50" height="50" relative="1" as="geometry">
            <mxPoint x="580" y="2510" as="sourcePoint" />
            <mxPoint x="630" y="2460" as="targetPoint" />
          </mxGeometry>
        </mxCell>
        <mxCell id="upQioBe8CkQy4cEBD0_V-87" value="không" style="edgeLabel;html=1;align=center;verticalAlign=middle;resizable=0;points=[];" vertex="1" connectable="0" parent="upQioBe8CkQy4cEBD0_V-86">
          <mxGeometry x="-0.3669" y="-1" relative="1" as="geometry">
            <mxPoint as="offset" />
          </mxGeometry>
        </mxCell>
        <mxCell id="upQioBe8CkQy4cEBD0_V-88" value="" style="endArrow=classic;html=1;rounded=0;exitX=0.5;exitY=1;exitDx=0;exitDy=0;entryX=1;entryY=0.5;entryDx=0;entryDy=0;" edge="1" parent="1" source="upQioBe8CkQy4cEBD0_V-34" target="upQioBe8CkQy4cEBD0_V-37">
          <mxGeometry width="50" height="50" relative="1" as="geometry">
            <mxPoint x="580" y="2510" as="sourcePoint" />
            <mxPoint x="630" y="2460" as="targetPoint" />
          </mxGeometry>
        </mxCell>
        <mxCell id="upQioBe8CkQy4cEBD0_V-89" value="" style="endArrow=classic;html=1;rounded=0;exitX=0.5;exitY=1;exitDx=0;exitDy=0;" edge="1" parent="1" source="upQioBe8CkQy4cEBD0_V-37" target="upQioBe8CkQy4cEBD0_V-38">
          <mxGeometry width="50" height="50" relative="1" as="geometry">
            <mxPoint x="50" y="2610" as="sourcePoint" />
            <mxPoint x="100" y="2560" as="targetPoint" />
          </mxGeometry>
        </mxCell>
        <mxCell id="upQioBe8CkQy4cEBD0_V-90" value="" style="endArrow=classic;html=1;rounded=0;exitX=0.5;exitY=1;exitDx=0;exitDy=0;" edge="1" parent="1" source="upQioBe8CkQy4cEBD0_V-38" target="upQioBe8CkQy4cEBD0_V-39">
          <mxGeometry width="50" height="50" relative="1" as="geometry">
            <mxPoint x="50" y="2610" as="sourcePoint" />
            <mxPoint x="100" y="2560" as="targetPoint" />
          </mxGeometry>
        </mxCell>
        <mxCell id="upQioBe8CkQy4cEBD0_V-91" value="" style="endArrow=classic;html=1;rounded=0;exitX=1;exitY=0.5;exitDx=0;exitDy=0;entryX=0.5;entryY=0;entryDx=0;entryDy=0;" edge="1" parent="1" source="upQioBe8CkQy4cEBD0_V-39" target="upQioBe8CkQy4cEBD0_V-40">
          <mxGeometry width="50" height="50" relative="1" as="geometry">
            <mxPoint x="50" y="2610" as="sourcePoint" />
            <mxPoint x="100" y="2560" as="targetPoint" />
            <Array as="points">
              <mxPoint x="190" y="2630" />
            </Array>
          </mxGeometry>
        </mxCell>
        <mxCell id="upQioBe8CkQy4cEBD0_V-92" value="" style="endArrow=classic;html=1;rounded=0;exitX=0.5;exitY=1;exitDx=0;exitDy=0;entryX=0.5;entryY=0;entryDx=0;entryDy=0;" edge="1" parent="1" source="upQioBe8CkQy4cEBD0_V-40" target="upQioBe8CkQy4cEBD0_V-41">
          <mxGeometry width="50" height="50" relative="1" as="geometry">
            <mxPoint x="950" y="3000" as="sourcePoint" />
            <mxPoint x="1000" y="2950" as="targetPoint" />
          </mxGeometry>
        </mxCell>
        <mxCell id="upQioBe8CkQy4cEBD0_V-93" value="" style="endArrow=classic;html=1;rounded=0;exitX=0.5;exitY=1;exitDx=0;exitDy=0;" edge="1" parent="1" source="upQioBe8CkQy4cEBD0_V-39" target="upQioBe8CkQy4cEBD0_V-42">
          <mxGeometry width="50" height="50" relative="1" as="geometry">
            <mxPoint x="-730" y="2970" as="sourcePoint" />
            <mxPoint x="-680" y="2920" as="targetPoint" />
          </mxGeometry>
        </mxCell>
        <mxCell id="upQioBe8CkQy4cEBD0_V-94" value="" style="endArrow=classic;html=1;rounded=0;exitX=0.5;exitY=1;exitDx=0;exitDy=0;entryX=0.5;entryY=0;entryDx=0;entryDy=0;" edge="1" parent="1" source="upQioBe8CkQy4cEBD0_V-42" target="upQioBe8CkQy4cEBD0_V-43">
          <mxGeometry width="50" height="50" relative="1" as="geometry">
            <mxPoint x="450" y="2980" as="sourcePoint" />
            <mxPoint x="500" y="2930" as="targetPoint" />
          </mxGeometry>
        </mxCell>
        <mxCell id="upQioBe8CkQy4cEBD0_V-95" value="" style="endArrow=classic;html=1;rounded=0;exitX=0.5;exitY=1;exitDx=0;exitDy=0;" edge="1" parent="1" source="upQioBe8CkQy4cEBD0_V-43" target="upQioBe8CkQy4cEBD0_V-44">
          <mxGeometry width="50" height="50" relative="1" as="geometry">
            <mxPoint x="600" y="3150" as="sourcePoint" />
            <mxPoint x="650" y="3100" as="targetPoint" />
          </mxGeometry>
        </mxCell>
        <mxCell id="upQioBe8CkQy4cEBD0_V-96" value="" style="endArrow=classic;html=1;rounded=0;exitX=0.5;exitY=1;exitDx=0;exitDy=0;" edge="1" parent="1" source="upQioBe8CkQy4cEBD0_V-44" target="upQioBe8CkQy4cEBD0_V-45">
          <mxGeometry width="50" height="50" relative="1" as="geometry">
            <mxPoint x="600" y="3150" as="sourcePoint" />
            <mxPoint x="650" y="3100" as="targetPoint" />
          </mxGeometry>
        </mxCell>
        <mxCell id="upQioBe8CkQy4cEBD0_V-97" value="" style="endArrow=classic;html=1;rounded=0;" edge="1" parent="1" source="upQioBe8CkQy4cEBD0_V-45" target="upQioBe8CkQy4cEBD0_V-46">
          <mxGeometry width="50" height="50" relative="1" as="geometry">
            <mxPoint x="140" y="3360" as="sourcePoint" />
            <mxPoint x="190" y="3310" as="targetPoint" />
          </mxGeometry>
        </mxCell>
        <mxCell id="upQioBe8CkQy4cEBD0_V-98" value="" style="endArrow=classic;html=1;rounded=0;exitX=0;exitY=1;exitDx=0;exitDy=0;entryX=0.5;entryY=0;entryDx=0;entryDy=0;" edge="1" parent="1" source="upQioBe8CkQy4cEBD0_V-46" target="upQioBe8CkQy4cEBD0_V-47">
          <mxGeometry width="50" height="50" relative="1" as="geometry">
            <mxPoint x="510" y="3510" as="sourcePoint" />
            <mxPoint x="560" y="3460" as="targetPoint" />
          </mxGeometry>
        </mxCell>
        <mxCell id="upQioBe8CkQy4cEBD0_V-99" value="" style="endArrow=classic;html=1;rounded=0;exitX=1;exitY=1;exitDx=0;exitDy=0;entryX=0.5;entryY=0;entryDx=0;entryDy=0;" edge="1" parent="1" source="upQioBe8CkQy4cEBD0_V-46" target="upQioBe8CkQy4cEBD0_V-48">
          <mxGeometry width="50" height="50" relative="1" as="geometry">
            <mxPoint x="510" y="3510" as="sourcePoint" />
            <mxPoint x="560" y="3460" as="targetPoint" />
          </mxGeometry>
        </mxCell>
        <mxCell id="upQioBe8CkQy4cEBD0_V-100" value="" style="endArrow=classic;html=1;rounded=0;exitX=1;exitY=1;exitDx=0;exitDy=0;" edge="1" parent="1" source="upQioBe8CkQy4cEBD0_V-31" target="upQioBe8CkQy4cEBD0_V-47">
          <mxGeometry width="50" height="50" relative="1" as="geometry">
            <mxPoint x="430" y="2640" as="sourcePoint" />
            <mxPoint x="480" y="2590" as="targetPoint" />
          </mxGeometry>
        </mxCell>
        <mxCell id="upQioBe8CkQy4cEBD0_V-101" value="có" style="edgeLabel;html=1;align=center;verticalAlign=middle;resizable=0;points=[];" vertex="1" connectable="0" parent="upQioBe8CkQy4cEBD0_V-100">
          <mxGeometry x="-0.5976" y="1" relative="1" as="geometry">
            <mxPoint x="-1" as="offset" />
          </mxGeometry>
        </mxCell>
        <mxCell id="upQioBe8CkQy4cEBD0_V-102" value="Kết thúc theo KQ khiếu nại" style="rounded=0;whiteSpace=wrap;html=1;" vertex="1" parent="1">
          <mxGeometry x="135" y="3930" width="120" height="60" as="geometry" />
        </mxCell>
        <mxCell id="upQioBe8CkQy4cEBD0_V-103" value="" style="endArrow=classic;html=1;rounded=0;" edge="1" parent="1" source="upQioBe8CkQy4cEBD0_V-47" target="upQioBe8CkQy4cEBD0_V-49">
          <mxGeometry width="50" height="50" relative="1" as="geometry">
            <mxPoint x="430" y="4150" as="sourcePoint" />
            <mxPoint x="480" y="4100" as="targetPoint" />
          </mxGeometry>
        </mxCell>
        <mxCell id="upQioBe8CkQy4cEBD0_V-104" value="" style="endArrow=classic;html=1;rounded=0;exitX=0.5;exitY=1;exitDx=0;exitDy=0;" edge="1" parent="1" source="upQioBe8CkQy4cEBD0_V-48" target="upQioBe8CkQy4cEBD0_V-50">
          <mxGeometry width="50" height="50" relative="1" as="geometry">
            <mxPoint x="430" y="4150" as="sourcePoint" />
            <mxPoint x="480" y="4100" as="targetPoint" />
          </mxGeometry>
        </mxCell>
        <mxCell id="upQioBe8CkQy4cEBD0_V-105" value="" style="endArrow=classic;html=1;rounded=0;entryX=0.5;entryY=0;entryDx=0;entryDy=0;exitX=1;exitY=1;exitDx=0;exitDy=0;" edge="1" parent="1" source="upQioBe8CkQy4cEBD0_V-50" target="upQioBe8CkQy4cEBD0_V-53">
          <mxGeometry width="50" height="50" relative="1" as="geometry">
            <mxPoint x="430" y="4240" as="sourcePoint" />
            <mxPoint x="480" y="4190" as="targetPoint" />
          </mxGeometry>
        </mxCell>
        <mxCell id="upQioBe8CkQy4cEBD0_V-106" value="hoàn tiền" style="edgeLabel;html=1;align=center;verticalAlign=middle;resizable=0;points=[];" vertex="1" connectable="0" parent="upQioBe8CkQy4cEBD0_V-105">
          <mxGeometry x="-0.7194" y="-1" relative="1" as="geometry">
            <mxPoint x="1" as="offset" />
          </mxGeometry>
        </mxCell>
        <mxCell id="upQioBe8CkQy4cEBD0_V-107" value="" style="endArrow=classic;html=1;rounded=0;exitX=0.5;exitY=1;exitDx=0;exitDy=0;entryX=0.5;entryY=0;entryDx=0;entryDy=0;" edge="1" parent="1" source="upQioBe8CkQy4cEBD0_V-50" target="upQioBe8CkQy4cEBD0_V-51">
          <mxGeometry width="50" height="50" relative="1" as="geometry">
            <mxPoint x="430" y="4240" as="sourcePoint" />
            <mxPoint x="480" y="4190" as="targetPoint" />
          </mxGeometry>
        </mxCell>
        <mxCell id="upQioBe8CkQy4cEBD0_V-108" value="đổi hàng" style="edgeLabel;html=1;align=center;verticalAlign=middle;resizable=0;points=[];" vertex="1" connectable="0" parent="upQioBe8CkQy4cEBD0_V-107">
          <mxGeometry x="-0.4188" y="4" relative="1" as="geometry">
            <mxPoint as="offset" />
          </mxGeometry>
        </mxCell>
        <mxCell id="upQioBe8CkQy4cEBD0_V-109" value="" style="endArrow=classic;html=1;rounded=0;exitX=0.5;exitY=1;exitDx=0;exitDy=0;entryX=1;entryY=0.25;entryDx=0;entryDy=0;" edge="1" parent="1" source="upQioBe8CkQy4cEBD0_V-49" target="upQioBe8CkQy4cEBD0_V-102">
          <mxGeometry width="50" height="50" relative="1" as="geometry">
            <mxPoint x="380" y="4010" as="sourcePoint" />
            <mxPoint x="430" y="3960" as="targetPoint" />
          </mxGeometry>
        </mxCell>
        <mxCell id="upQioBe8CkQy4cEBD0_V-110" value="" style="endArrow=classic;html=1;rounded=0;exitX=0.5;exitY=1;exitDx=0;exitDy=0;entryX=0.5;entryY=0;entryDx=0;entryDy=0;" edge="1" parent="1" source="upQioBe8CkQy4cEBD0_V-53" target="upQioBe8CkQy4cEBD0_V-54">
          <mxGeometry width="50" height="50" relative="1" as="geometry">
            <mxPoint x="870" y="4250" as="sourcePoint" />
            <mxPoint x="920" y="4200" as="targetPoint" />
          </mxGeometry>
        </mxCell>
        <mxCell id="upQioBe8CkQy4cEBD0_V-111" value="" style="endArrow=classic;html=1;rounded=0;exitX=0.5;exitY=1;exitDx=0;exitDy=0;entryX=1;entryY=0.5;entryDx=0;entryDy=0;" edge="1" parent="1" source="upQioBe8CkQy4cEBD0_V-54" target="upQioBe8CkQy4cEBD0_V-55">
          <mxGeometry width="50" height="50" relative="1" as="geometry">
            <mxPoint x="940" y="4250" as="sourcePoint" />
            <mxPoint x="990" y="4200" as="targetPoint" />
          </mxGeometry>
        </mxCell>
        <mxCell id="upQioBe8CkQy4cEBD0_V-112" value="" style="endArrow=classic;html=1;rounded=0;exitX=0;exitY=0.5;exitDx=0;exitDy=0;entryX=1;entryY=0.75;entryDx=0;entryDy=0;" edge="1" parent="1" source="upQioBe8CkQy4cEBD0_V-51" target="upQioBe8CkQy4cEBD0_V-56">
          <mxGeometry width="50" height="50" relative="1" as="geometry">
            <mxPoint x="80" y="4090" as="sourcePoint" />
            <mxPoint x="130" y="4040" as="targetPoint" />
            <Array as="points">
              <mxPoint x="200" y="4080" />
            </Array>
          </mxGeometry>
        </mxCell>
        <mxCell id="upQioBe8CkQy4cEBD0_V-113" value="" style="endArrow=classic;html=1;rounded=0;exitX=0.5;exitY=1;exitDx=0;exitDy=0;" edge="1" parent="1" source="upQioBe8CkQy4cEBD0_V-56" target="upQioBe8CkQy4cEBD0_V-52">
          <mxGeometry width="50" height="50" relative="1" as="geometry">
            <mxPoint x="-440" y="4150" as="sourcePoint" />
            <mxPoint x="-390" y="4100" as="targetPoint" />
          </mxGeometry>
        </mxCell>
        <mxCell id="upQioBe8CkQy4cEBD0_V-114" value="" style="endArrow=classic;html=1;rounded=0;entryX=0.5;entryY=0;entryDx=0;entryDy=0;" edge="1" parent="1" source="upQioBe8CkQy4cEBD0_V-52" target="upQioBe8CkQy4cEBD0_V-57">
          <mxGeometry width="50" height="50" relative="1" as="geometry">
            <mxPoint x="-800" y="4080" as="sourcePoint" />
            <mxPoint x="-750" y="4030" as="targetPoint" />
          </mxGeometry>
        </mxCell>
        <mxCell id="upQioBe8CkQy4cEBD0_V-115" value="" style="endArrow=classic;html=1;rounded=0;exitX=0.5;exitY=1;exitDx=0;exitDy=0;" edge="1" parent="1" source="upQioBe8CkQy4cEBD0_V-57" target="upQioBe8CkQy4cEBD0_V-58">
          <mxGeometry width="50" height="50" relative="1" as="geometry">
            <mxPoint x="-750" y="4410" as="sourcePoint" />
            <mxPoint x="-700" y="4360" as="targetPoint" />
          </mxGeometry>
        </mxCell>
        <mxCell id="upQioBe8CkQy4cEBD0_V-116" value="" style="endArrow=classic;html=1;rounded=0;exitX=0.5;exitY=1;exitDx=0;exitDy=0;" edge="1" parent="1" source="upQioBe8CkQy4cEBD0_V-58" target="upQioBe8CkQy4cEBD0_V-59">
          <mxGeometry width="50" height="50" relative="1" as="geometry">
            <mxPoint x="590" y="4610" as="sourcePoint" />
            <mxPoint x="640" y="4560" as="targetPoint" />
          </mxGeometry>
        </mxCell>
        <mxCell id="upQioBe8CkQy4cEBD0_V-117" value="" style="endArrow=classic;html=1;rounded=0;exitX=0.5;exitY=1;exitDx=0;exitDy=0;entryX=0.5;entryY=0;entryDx=0;entryDy=0;" edge="1" parent="1" source="upQioBe8CkQy4cEBD0_V-59" target="upQioBe8CkQy4cEBD0_V-60">
          <mxGeometry width="50" height="50" relative="1" as="geometry">
            <mxPoint x="630" y="4570" as="sourcePoint" />
            <mxPoint x="680" y="4520" as="targetPoint" />
          </mxGeometry>
        </mxCell>
      </root>
    </mxGraphModel>
  </diagram>
</mxfile>
